<svg width="154" height="31" viewBox="0 0 154 31" fill="none" xmlns="http://www.w3.org/2000/svg">
<path d="M126.742 6.48491V7.6287H124.551V11.2966H126.74V23.1229H131.63V11.2966H135.689V7.6287H131.227V6.48491C131.227 5.24963 132.288 4.2447 133.594 4.2447H135.689V0H133.594C129.815 0 126.742 2.90907 126.742 6.48491Z" fill="#020212"/>
<path d="M154 6.7882H149.316L145.538 18.3661L141.281 6.7882H136.205L143.171 23.4775L140.717 31H145.043L148.066 22.8326H148.062L154 6.7882Z" fill="#020212"/>
<path d="M122.528 0.60487H117.638V5.2034H122.528V0.60487Z" fill="#020212"/>
<path d="M122.528 6.7882H117.638V23.1231H122.528V6.7882Z" fill="#020212"/>
<path d="M115.247 6.57788H114.723C114.244 6.57788 113.742 6.67026 113.23 6.85265C112.729 7.03206 112.229 7.29232 111.744 7.62663C111.261 7.95883 110.807 8.35236 110.392 8.79647C110.221 8.97945 110.059 9.1728 109.906 9.37593V6.78809H105.365V23.1229H110.254V13.3734C110.671 12.5618 111.327 11.9661 112.259 11.553C113.227 11.1234 114.345 10.8957 115.585 10.8765L115.899 10.8714V6.66228L115.641 6.61372C115.514 6.59004 115.381 6.57788 115.247 6.57788Z" fill="#020212"/>
<path d="M101.016 9.04259C100.239 8.27657 99.2868 7.65808 98.1852 7.20357C97.0811 6.74878 95.8165 6.51813 94.4265 6.51813C93.0356 6.51813 91.7612 6.74849 90.6376 7.20269C89.514 7.65689 88.5443 8.28106 87.7572 9.05769C86.9693 9.83399 86.3598 10.7465 85.9451 11.7701C85.5311 12.7902 85.3209 13.8922 85.3209 15.0457C85.3209 16.1608 85.5368 17.2386 85.9622 18.2494C86.3883 19.2626 87.0035 20.1648 87.7906 20.9302C88.5785 21.6964 89.5417 22.3102 90.6547 22.7541C91.7677 23.1979 93.0258 23.4232 94.3947 23.4232C96.3054 23.4232 97.9774 23.0196 99.3651 22.2238C100.754 21.4267 101.783 20.3889 102.421 19.1398L102.588 18.8129L98.2968 17.6827L98.1893 17.9331C97.9408 18.512 97.4837 18.968 96.7935 19.3271C96.0936 19.6907 95.3399 19.8752 94.5528 19.8752C94.0443 19.8752 93.5489 19.7908 93.0796 19.6244C92.6102 19.4578 92.1857 19.2146 91.8174 18.902C91.4483 18.5893 91.1419 18.2056 90.9073 17.7614C90.7182 17.4034 90.5846 16.9969 90.5088 16.5495H103.239L103.3 16.3198C103.347 16.1395 103.376 15.9234 103.389 15.6583C103.399 15.4141 103.404 15.16 103.404 14.8956C103.404 13.8036 103.2 12.7375 102.797 11.7266C102.392 10.7125 101.793 9.80943 101.016 9.04259ZM90.4363 13.3317C90.4982 12.916 90.6197 12.5278 90.7989 12.1749C91.0222 11.7319 91.3139 11.3479 91.6651 11.0341C92.0146 10.7217 92.4237 10.4741 92.8808 10.2992C93.3379 10.1245 93.8365 10.036 94.3629 10.036C95.4515 10.036 96.3502 10.3584 97.1113 11.0214C97.7941 11.6176 98.2007 12.3759 98.3482 13.3317H90.4363Z" fill="#020212"/>
<path d="M82.5359 1.20516L76.7354 16.7222L70.8736 1.20516H65.5793L74.679 23.1231H78.7952L87.8297 1.20516H82.5359Z" fill="#020212"/>
<path d="M66.1791 6.81797H60.7926L54.5966 13.4083V0.60487H49.7063V23.1229H54.5966V18.2638L56.5088 16.4793L61.2093 23.1229H66.5277L59.6931 13.8068L66.1791 6.81797Z" fill="#020212"/>
<path d="M47.6546 9.6626V6.7882H33.6625V10.216H42.1757L33.2819 20.2481V23.1231H47.8133V19.6952H38.8213L47.6546 9.6626Z" fill="#020212"/>
<path d="M18.2372 17.187H11.8617L18.1815 24.1892H6.39845V17.1409L0.00135958 24.2286H0V29.3383H24.594V24.2286H24.5927L18.2372 17.187Z" fill="#020212"/>
<path d="M0 0.572815V5.68248H0.00135958L6.39845 12.7702V5.64305H18.278V5.68248H18.2171L11.762 12.8344H18.1376L24.5927 5.68248H24.594V0.572815H0Z" fill="#020212"/>
</svg>
